# Aspose.3D Wavefront OBJ Exporter
# Copyright 2004-2021 Aspose Pty Ltd.
# File created: 11/25/2021 10:29:53


#
# object obj_64713035
#

v 0.01349999289959669 -0.00650000013411045 0.00400002393871545
v 0.01349998265504837 -0.0279999990016222 0.01000002305954694
v 0.01349998265504837 0.00299999956041574 0.01000002305954694
v 0.01350000686943531 -0.00650000013411045 -0.00399997644126415
v 0.01350000686943531 -0.0035000005736947 -0.00399997644126415
v 0.0135000180453062 0.00299999956041574 -0.00999997649341821
v 0.01349999289959669 -0.0035000005736947 0.00400002393871545
v 0.01350001711398363 -0.0279999990016222 -0.00999997649341821
v 0.01350000686943531 -0.01850000023841858 -0.00399997644126415
v 0.01349999289959669 -0.01850000023841858 0.00400002393871545
v 0.01349999289959669 -0.02149999886751175 0.00400002393871545
v 0.01350000686943531 -0.02149999886751175 -0.00399997644126415
v 0.00097584666218608 -0.0279999990016222 -0.00235589127987623
v 3.976063034372146E-09 -0.0279999990016222 -0.00255000009201467
v -0.00499998265877366 -0.0279999990016222 -0.01000000908970832
v -0.00097583897877484 -0.0279999990016222 -0.00235589453950524
v -0.00180311931762844 -0.0279999990016222 -0.00180312583688646
v 0.00180312513839453 -0.0279999990016222 -0.00180311955045908
v 0.00235589430667459 -0.0279999990016222 -0.00097583868773654
v 0.00254999962635338 -0.0279999990016222 4.246271778640676E-09
v 0.00235589081421494 -0.0279999990016222 0.0009758464875631
v -0.00500001804903149 -0.0279999990016222 0.00999999046325683
v -0.00097584718605503 -0.0279999990016222 0.00235589127987623
v -0.00180312560405582 -0.0279999990016222 0.00180311908479779
v -0.00235589477233588 -0.0279999990016222 0.00097583822207525
v -0.00255000032484531 -0.0279999990016222 -4.693399446864532E-09
v -0.00235589151270687 -0.0279999990016222 -0.00097584695322439
v 0.00180311885196715 -0.0279999990016222 0.00180312537122517
v 0.00097583845490589 -0.0279999990016222 0.00235589453950524
v -4.963608635222272E-09 -0.0279999990016222 0.00255000009201467
v -0.00500001804903149 -0.02999999932944774 0.00999999046325683
v -0.00499998265877366 -0.02999999932944774 -0.01000000908970832
v 0.00180311873555183 -0.02999999932944774 0.00180312537122517
v 0.00235589081421494 -0.02999999932944774 0.0009758464875631
v 0.01549998298287391 -0.02999999932944774 0.01000002678483724
v 0.00254999962635338 -0.02999999932944774 4.246271778640676E-09
v 0.01550001744180917 -0.02999999932944774 -0.00999997276812791
v 0.00235589430667459 -0.02999999932944774 -0.00097583868773654
v 0.00180312513839453 -0.02999999932944774 -0.00180311955045908
v 0.00097584666218608 -0.02999999932944774 -0.00235589127987623
v 3.9572833898660065E-09 -0.02999999932944774 -0.00255000009201467
v -0.00097583897877484 -0.02999999932944774 -0.00235589453950524
v -0.00180311931762844 -0.02999999932944774 -0.00180312583688646
v -0.00235589151270687 -0.02999999932944774 -0.00097584695322439
v -0.00255000032484531 -0.02999999932944774 -4.693399890953742E-09
v -0.00235589500516653 -0.02999999932944774 0.00097583822207525
v -0.00180312572047114 -0.02999999932944774 0.00180311908479779
v -0.00097584724426269 -0.02999999932944774 0.00235589127987623
v -4.982388279728411E-09 -0.02999999932944774 0.00255000009201467
v 0.00097583839669823 -0.02999999932944774 0.00235589453950524
v 0.01550000719726085 -0.01850000023841858 -0.00399997271597385
v 0.01550000719726085 -0.02149999886751175 -0.00399997271597385
v 0.01549999322742223 -0.00650000013411045 0.00400002766400575
v 0.01549999322742223 -0.0035000005736947 0.00400002766400575
v 0.01549998298287391 0.00499999988824129 0.01000002678483724
v 0.01549999322742223 -0.02149999886751175 0.00400002766400575
v 0.01549999322742223 -0.01850000023841858 0.00400002766400575
v 0.01550001837313175 0.00499999988824129 -0.00999997276812791
v 0.01550000719726085 -0.0035000005736947 -0.00399997271597385
v 0.01550000719726085 -0.00650000013411045 -0.00399997271597385
v -0.0050000175833702 0.00500000035390257 0.00999999046325683
v -0.00255000009201467 0.00499999988824129 -4.693399446864532E-09
v -0.00499998265877366 0.00500000035390257 -0.01000000908970832
v -0.00235589104704558 0.00499999988824129 -0.00097584695322439
v -0.00180311896838247 0.00499999988824129 -0.00180312583688646
v -0.00097584689501672 0.00499999988824129 0.00235589127987623
v -0.00180312537122517 0.00499999988824129 0.00180311908479779
v -0.00235589453950524 0.00499999988824129 0.00097583822207525
v 0.00097584701143205 0.00499999988824129 -0.00235589127987623
v 4.285926724634237E-09 0.00499999988824129 -0.00255000009201467
v -0.00097583862952888 0.00499999988824129 -0.00235589453950524
v 0.00235589104704558 0.00499999988824129 0.0009758464875631
v 0.00180311908479779 0.00499999988824129 0.00180312537122517
v 0.0009758387459442 0.00499999988824129 0.00235589453950524
v -4.653744944960181E-09 0.00499999988824129 0.00255000009201467
v 0.0018031254876405 0.00499999988824129 -0.00180311955045908
v 0.00235589453950524 0.00499999988824129 -0.00097583868773654
v 0.00255000009201467 0.00499999988824129 4.2462722227298855E-09
v -0.0050000175833702 0.00299999979324638 0.00999999046325683
v -0.00499998265877366 0.00299999979324638 -0.01000000908970832
v 0.00180312537122517 0.00299999979324638 -0.00180311955045908
v 0.00097584695322439 0.00299999979324638 -0.00235589127987623
v -0.00097583868773654 0.00299999979324638 -0.00235589453950524
v -0.00180311908479779 0.00299999979324638 -0.00180312583688646
v 4.2671470801280975E-09 0.00299999979324638 -0.00255000009201467
v 0.00180311908479779 0.00299999979324638 0.00180312537122517
v 0.00235589104704558 0.00299999979324638 0.0009758464875631
v 0.00255000009201467 0.00299999979324638 4.2462722227298855E-09
v 0.00235589453950524 0.00299999979324638 -0.00097583868773654
v -0.00235589127987623 0.00299999979324638 -0.00097584695322439
v -0.00255000009201467 0.00299999979324638 -4.693399446864532E-09
v -0.00235589453950524 0.00299999979324638 0.00097583822207525
v -0.00180312537122517 0.00299999979324638 0.00180311908479779
v -0.00097584689501672 0.00299999979324638 0.00235589127987623
v -4.67252458946632E-09 0.00299999979324638 0.00255000009201467
v 0.0009758387459442 0.00299999979324638 0.00235589453950524
# 96 vertices

vn -1 9.389807154036589E-09 -1.752876755745092E-06
vn 9.389807154036589E-09 1 8.076005142410025E-15
vn 9.389807154036589E-09 1 8.076872504148014E-15
vn -9.389807154036589E-09 -1 -8.076005142410025E-15
vn -9.389807154036589E-09 -1 -8.076872504148014E-15
vn 1 -9.389807154036589E-09 1.752876755745092E-06
vn -1.752876755745092E-06 8.38305119765792E-15 1
vn 1.752876755745092E-06 -8.38305119765792E-15 -1
vn -0.19508853554725648 1.8318515593307438E-09 -0.98078560829162592
vn -0.55556893348693848 5.216691967291354E-09 -0.83147048950195312
vn -0.83146870136260992 7.807335222764777E-09 -0.55557155609130856
vn -0.98078495264053344 9.209382589858706E-09 -0.1950920671224594
vn -0.98078560829162592 9.209386142572384E-09 0.19508862495422364
vn -0.83147066831588752 7.807344104548974E-09 0.55556863546371456
vn -0.55557155609130856 5.21670262543239E-09 0.83146876096725456
vn -0.19509197771549224 1.8318679906315083E-09 0.98078495264053344
vn 0.19508862495422364 -1.8318524475091635E-09 0.98078560829162592
vn 0.55556863546371456 -5.216688858666885E-09 0.83147066831588752
vn 0.83146864175796512 -7.807334334586358E-09 0.55557167530059816
vn 0.98078495264053344 -9.209382589858706E-09 0.1950920671224594
vn 0.98078560829162592 -9.209386142572384E-09 -0.19508862495422364
vn 0.83147060871124272 -7.807344104548974E-09 -0.55556875467300416
vn 0.55557185411453248 -5.216705734056859E-09 -0.83146852254867552
vn 0.1950920671224594 -1.831868878809928E-09 -0.98078495264053344
# 24 vertex normals

g obj_64713035
s 1
f 1//1 2//1 3//1
f 4//1 5//1 6//1
f 6//1 5//1 3//1
f 3//1 5//1 7//1
f 3//1 7//1 1//1
f 6//1 8//1 4//1
f 4//1 8//1 9//1
f 4//1 9//1 1//1
f 1//1 9//1 10//1
f 1//1 10//1 2//1
f 2//1 10//1 11//1
f 2//1 11//1 8//1
f 8//1 11//1 12//1
f 8//1 12//1 9//1
f 13//2 8//2 14//2
f 14//2 8//2 15//2
f 14//2 15//2 16//2
f 16//2 15//2 17//2
f 13//3 18//3 8//3
f 8//2 18//2 19//2
f 8//3 19//3 2//3
f 2//2 19//2 20//2
f 2//2 20//2 21//2
f 22//3 23//3 24//3
f 24//3 25//3 22//3
f 22//2 25//2 26//2
f 22//3 26//3 15//3
f 15//2 26//2 27//2
f 15//3 27//3 17//3
f 21//2 28//2 2//2
f 2//2 28//2 29//2
f 2//2 29//2 22//2
f 22//3 29//3 30//3
f 22//2 30//2 23//2
f 31//1 22//1 32//1
f 32//1 22//1 15//1
f 33//4 34//4 35//4
f 35//4 34//4 36//4
f 35//4 36//4 37//4
f 37//4 36//4 38//4
f 38//4 39//4 37//4
f 37//4 39//4 40//4
f 37//4 40//4 32//4
f 40//5 41//5 32//5
f 32//4 41//4 42//4
f 32//4 42//4 43//4
f 43//5 44//5 32//5
f 32//4 44//4 45//4
f 32//5 45//5 31//5
f 31//4 45//4 46//4
f 31//5 46//5 47//5
f 47//5 48//5 31//5
f 31//4 48//4 49//4
f 31//4 49//4 35//4
f 35//4 49//4 50//4
f 35//5 50//5 33//5
f 51//6 52//6 37//6
f 53//6 54//6 55//6
f 37//6 52//6 35//6
f 35//6 52//6 56//6
f 35//6 56//6 57//6
f 55//6 54//6 58//6
f 58//6 54//6 59//6
f 58//6 59//6 60//6
f 55//6 35//6 53//6
f 53//6 35//6 57//6
f 53//6 57//6 60//6
f 60//6 57//6 51//6
f 60//6 51//6 58//6
f 58//6 51//6 37//6
f 61//3 62//3 63//3
f 63//2 62//2 64//2
f 63//3 64//3 65//3
f 66//3 67//3 61//3
f 61//3 67//3 68//3
f 61//2 68//2 62//2
f 69//2 58//2 70//2
f 70//2 58//2 63//2
f 70//2 63//2 71//2
f 71//2 63//2 65//2
f 72//2 73//2 55//2
f 55//3 73//3 74//3
f 55//2 74//2 61//2
f 61//3 74//3 75//3
f 61//2 75//2 66//2
f 69//2 76//2 58//2
f 58//2 76//2 77//2
f 58//2 77//2 55//2
f 55//2 77//2 78//2
f 55//2 78//2 72//2
f 79//1 61//1 80//1
f 80//1 61//1 63//1
f 81//5 82//5 6//5
f 80//4 83//4 84//4
f 6//4 82//4 80//4
f 80//5 82//5 85//5
f 80//4 85//4 83//4
f 86//4 87//4 3//4
f 3//4 87//4 88//4
f 3//4 88//4 6//4
f 6//4 88//4 89//4
f 6//4 89//4 81//4
f 84//5 90//5 80//5
f 80//4 90//4 91//4
f 80//5 91//5 79//5
f 79//4 91//4 92//4
f 79//5 92//5 93//5
f 93//5 94//5 79//5
f 79//4 94//4 95//4
f 79//4 95//4 3//4
f 3//4 95//4 96//4
f 3//4 96//4 86//4
f 22//7 31//7 2//7
f 2//7 31//7 35//7
f 2//7 35//7 3//7
f 3//7 35//7 55//7
f 3//7 55//7 79//7
f 79//7 55//7 61//7
f 80//8 63//8 6//8
f 6//8 63//8 58//8
f 6//8 58//8 8//8
f 8//8 58//8 37//8
f 8//8 37//8 15//8
f 15//8 37//8 32//8
f 95//9 75//9 96//9
f 96//9 75//9 74//9
f 96//10 74//10 86//10
f 86//10 74//10 73//10
f 86//11 73//11 87//11
f 87//11 73//11 72//11
f 87//12 72//12 88//12
f 88//12 72//12 78//12
f 88//13 78//13 89//13
f 89//13 78//13 77//13
f 89//14 77//14 81//14
f 81//14 77//14 76//14
f 81//15 76//15 82//15
f 82//15 76//15 69//15
f 82//16 69//16 85//16
f 85//16 69//16 70//16
f 85//17 70//17 83//17
f 83//17 70//17 71//17
f 83//18 71//18 84//18
f 84//18 71//18 65//18
f 84//19 65//19 90//19
f 90//19 65//19 64//19
f 90//20 64//20 91//20
f 91//20 64//20 62//20
f 91//21 62//21 92//21
f 92//21 62//21 68//21
f 92//22 68//22 93//22
f 93//22 68//22 67//22
f 93//23 67//23 94//23
f 94//23 67//23 66//23
f 94//24 66//24 95//24
f 95//24 66//24 75//24
f 49//9 30//9 50//9
f 50//9 30//9 29//9
f 50//10 29//10 33//10
f 33//10 29//10 28//10
f 33//11 28//11 34//11
f 34//11 28//11 21//11
f 34//12 21//12 36//12
f 36//12 21//12 20//12
f 36//13 20//13 38//13
f 38//13 20//13 19//13
f 38//14 19//14 39//14
f 39//14 19//14 18//14
f 39//15 18//15 40//15
f 40//15 18//15 13//15
f 40//16 13//16 41//16
f 41//16 13//16 14//16
f 41//17 14//17 42//17
f 42//17 14//17 16//17
f 42//18 16//18 43//18
f 43//18 16//18 17//18
f 43//19 17//19 44//19
f 44//19 17//19 27//19
f 44//20 27//20 45//20
f 45//20 27//20 26//20
f 45//21 26//21 46//21
f 46//21 26//21 25//21
f 46//22 25//22 47//22
f 47//22 25//22 24//22
f 47//23 24//23 48//23
f 48//23 24//23 23//23
f 48//24 23//24 49//24
f 49//24 23//24 30//24
f 57//8 56//8 10//8
f 10//8 56//8 11//8
f 51//4 57//4 9//4
f 9//4 57//4 10//4
f 52//7 51//7 12//7
f 12//7 51//7 9//7
f 56//2 52//2 11//2
f 11//2 52//2 12//2
f 54//8 53//8 7//8
f 7//8 53//8 1//8
f 59//4 54//4 5//4
f 5//4 54//4 7//4
f 60//7 59//7 4//7
f 4//7 59//7 5//7
f 53//2 60//2 1//2
f 1//2 60//2 4//2
#204 polygons

