# Aspose.3D Wavefront OBJ Exporter
# Copyright 2004-2021 Aspose Pty Ltd.
# File created: 11/25/2021 10:37:41


#
# object obj_39378010
#

v 0.00949999969452619 -0.01341999974101781 -1.890154699424329E-14
v 0.00949999969452619 0.01341999974101781 -1.892930256985892E-14
v 0.00949999969452619 -0.01341999974101781 0.00100000004749745
v 0.00949999969452619 0.01341999974101781 0.00100000004749745
v -0.00850000046193599 0.01441999990493059 0.00100000004749745
v 0.00850000046193599 0.01441999990493059 0.00100000004749745
v -0.00850000046193599 0.01441999990493059 -1.8957058145474548E-14
v 0.00850000046193599 0.01441999990493059 -1.892930256985892E-14
v -0.00949999969452619 0.01341999974101781 -1.8984813721090177E-14
v -0.00949999969452619 -0.01341999974101781 -1.8957058145474548E-14
v -0.00949999969452619 0.01341999974101781 0.00100000004749745
v -0.00949999969452619 -0.01341999974101781 0.00100000004749745
v -0.00850000046193599 -0.01441999990493059 -1.8957058145474548E-14
v 0.00850000046193599 -0.01441999990493059 -1.892930256985892E-14
v -0.00850000046193599 -0.01441999990493059 0.00100000004749745
v 0.00850000046193599 -0.01441999990493059 0.00100000004749745
v -0.0089999996125698 0.01428602542728185 0.00100000004749745
v -0.00936602521687746 0.0139199998229742 0.00100000004749745
v 0.0089999996125698 0.01428602542728185 0.00100000004749745
v 0.00936602521687746 0.0139199998229742 0.00100000004749745
v -0.00936602521687746 -0.0139199998229742 0.00100000004749745
v -0.0089999996125698 -0.01428602542728185 0.00100000004749745
v 0.0089999996125698 -0.01428602542728185 0.00100000004749745
v 0.00936602521687746 -0.0139199998229742 0.00100000004749745
v 0.0089999996125698 0.01428602542728185 -1.892930256985892E-14
v 0.00936602521687746 0.0139199998229742 -1.892930256985892E-14
v -0.0089999996125698 0.01428602542728185 -1.892930256985892E-14
v -0.00936602521687746 0.0139199998229742 -1.8984813721090177E-14
v -0.0089999996125698 -0.01428602542728185 -1.8957058145474548E-14
v -0.00936602521687746 -0.0139199998229742 -1.892930256985892E-14
v 0.0089999996125698 -0.01428602542728185 -1.8957058145474548E-14
v 0.00936602521687746 -0.0139199998229742 -1.890154699424329E-14
# 32 vertices

vn 1 1.626338066488433E-16 9.191154510656413E-16
vn -1.6262352313946803E-16 1 -4.551480720094148E-16
vn -1 -1.626338066488433E-16 -9.191154510656413E-16
vn 1.6262352313946803E-16 -1 4.551480720094148E-16
vn -9.191120629338523E-16 4.553649124439119E-16 1
vn 9.191120629338523E-16 -4.553649124439119E-16 -1
vn -0.25881925225257872 0.96592575311660768 -6.774095173689432E-16
vn -0.7071067690849304 0.7071067690849304 -9.717704071987576E-16
vn -0.96592587232589728 0.25881880521774292 -1.0056246200346175E-15
vn -0.96592587232589728 -0.25881880521774292 -7.700003828992052E-16
vn -0.7071067690849304 -0.7071067690849304 -3.2807957739411364E-16
vn -0.25881925225257872 -0.96592575311660768 2.0166160408230382E-16
vn 0.25881925225257872 -0.96592575311660768 6.774095173689432E-16
vn 0.7071067690849304 -0.7071067690849304 9.717704071987576E-16
vn 0.96592587232589728 -0.25881880521774292 1.0056246200346175E-15
vn 0.96592587232589728 0.25881880521774292 7.700003828992052E-16
vn 0.7071067690849304 0.7071067690849304 3.2807957739411364E-16
vn 0.25881925225257872 0.96592575311660768 -2.0166160408230382E-16
# 18 vertex normals

g obj_39378010
s 1
f 1//1 2//1 3//1
f 3//1 2//1 4//1
f 5//2 6//2 7//2
f 7//2 6//2 8//2
f 9//3 10//3 11//3
f 11//3 10//3 12//3
f 13//4 14//4 15//4
f 15//4 14//4 16//4
f 17//5 18//5 5//5
f 5//5 18//5 11//5
f 5//5 11//5 6//5
f 6//5 11//5 4//5
f 6//5 4//5 19//5
f 19//5 4//5 20//5
f 21//5 22//5 12//5
f 12//5 22//5 15//5
f 16//5 23//5 24//5
f 24//5 3//5 16//5
f 16//5 3//5 4//5
f 16//5 4//5 15//5
f 15//5 4//5 11//5
f 15//5 11//5 12//5
f 9//6 2//6 10//6
f 10//6 2//6 1//6
f 25//6 26//6 8//6
f 8//6 26//6 2//6
f 8//6 2//6 7//6
f 7//6 2//6 9//6
f 7//6 9//6 27//6
f 27//6 9//6 28//6
f 29//6 30//6 13//6
f 13//6 30//6 10//6
f 13//6 10//6 14//6
f 14//6 10//6 1//6
f 14//6 1//6 31//6
f 31//6 1//6 32//6
f 5//7 7//7 27//7
f 5//7 27//7 17//7
f 17//8 27//8 28//8
f 17//8 28//8 18//8
f 18//9 28//9 9//9
f 18//9 9//9 11//9
f 12//10 10//10 30//10
f 12//10 30//10 21//10
f 21//11 30//11 29//11
f 21//11 29//11 22//11
f 22//12 29//12 13//12
f 22//12 13//12 15//12
f 16//13 14//13 31//13
f 16//13 31//13 23//13
f 23//14 31//14 32//14
f 23//14 32//14 24//14
f 24//15 32//15 1//15
f 24//15 1//15 3//15
f 4//16 2//16 26//16
f 4//16 26//16 20//16
f 20//17 26//17 25//17
f 20//17 25//17 19//17
f 19//18 25//18 8//18
f 19//18 8//18 6//18
#60 polygons

