# Aspose.3D Wavefront OBJ Exporter
# Copyright 2004-2021 Aspose Pty Ltd.
# File created: 11/25/2021 10:33:37


#
# object obj_66285817
#

v 0.00650000059977173 0.00350000010803341 -0.01702721044421196
v 0.01549999974668026 0.00999999977648258 -0.01702721044421196
v 0.00650000059977173 -0.00350000010803341 -0.01702721044421196
v 0.01549999974668026 -0.00999999977648258 -0.01702721044421196
v 0.00450000027194619 -0.00350000010803341 -0.01702721044421196
v -0.01950000040233135 -0.00999999977648258 -0.01702721044421196
v -0.00850000046193599 -0.00350000010803341 -0.01702721044421196
v 0.00450000027194619 0.00350000010803341 -0.01702721044421196
v -0.00850000046193599 0.00350000010803341 -0.01702721044421196
v -0.01950000040233135 0.00999999977648258 -0.01702721044421196
v -0.01050000078976154 0.00350000010803341 -0.01702721044421196
v -0.01050000078976154 -0.00350000010803341 -0.01702721044421196
v 0.00176776701118797 0.00176776689477264 -2.7210142434341833E-05
v 0.00230969884432852 0.00095670856535434 -2.7210142434341833E-05
v 0.01549999974668026 0.00999999977648258 -2.7210142434341833E-05
v 0.00249999971129 -4.500219641379033E-14 -2.7210142434341833E-05
v 0.01549999974668026 -0.00999999977648258 -2.7210142434341833E-05
v 0.00230969884432852 -0.00095670856535434 -2.7210142434341833E-05
v 0.00176776701118797 -0.00176776689477264 -2.7210142434341833E-05
v 0.00095670868176966 -0.00230969884432852 -2.7210142434341833E-05
v 9.499538655699524E-11 -0.00249999994412064 -2.7210142434341833E-05
v -0.01950000040233135 -0.00999999977648258 -2.7210142434341833E-05
v -0.00095670856535434 -0.00230969884432852 -2.7210142434341833E-05
v -0.00176776701118797 -0.00176776689477264 -2.7210142434341833E-05
v -0.00176776701118797 0.00176776689477264 -2.7210142434341833E-05
v -0.00095670856535434 0.00230969884432852 -2.7210142434341833E-05
v -0.01950000040233135 0.00999999977648258 -2.7210142434341833E-05
v 9.499538655699524E-11 0.00249999994412064 -2.7210142434341833E-05
v 0.00095670868176966 0.00230969884432852 -2.7210142434341833E-05
v -0.00230969884432852 -0.00095670856535434 -2.7210142434341833E-05
v -0.00249999994412064 -4.500219641379033E-14 -2.7210142434341833E-05
v -0.00230969884432852 0.00095670856535434 -2.7210142434341833E-05
v 0.01249999925494194 -0.00700000021606683 -0.00502720987424254
v 0.00176776701118797 -0.00176776689477264 -0.00502720987424254
v 0.00230969884432852 -0.00095670856535434 -0.00502720987424254
v 0.00230969884432852 0.00095670856535434 -0.00502720987424254
v 0.00176776701118797 0.00176776689477264 -0.00502720987424254
v 0.01249999925494194 0.00700000021606683 -0.00502720987424254
v -0.00176776701118797 0.00176776689477264 -0.00502720987424254
v -0.00230969884432852 0.00095670856535434 -0.00502720987424254
v -0.01649999991059303 0.00700000021606683 -0.00502720987424254
v -0.00249999994412064 -4.500219641379033E-14 -0.00502720987424254
v -0.01649999991059303 -0.00700000021606683 -0.00502720987424254
v -0.00230969884432852 -0.00095670856535434 -0.00502720987424254
v -0.00176776701118797 -0.00176776689477264 -0.00502720987424254
v 0.00249999971129 -4.4998726966838376E-14 -0.00502720987424254
v -0.00095670856535434 -0.00230969884432852 -0.00502720987424254
v 9.499538655699524E-11 -0.00249999994412064 -0.00502720987424254
v 0.00095670868176966 -0.00230969884432852 -0.00502720987424254
v 0.00095670868176966 0.00230969884432852 -0.00502720987424254
v 9.499538655699524E-11 0.00249999994412064 -0.00502720987424254
v -0.00095670856535434 0.00230969884432852 -0.00502720987424254
v -0.01649999991059303 0.00700000021606683 -0.01502721011638641
v 0.01249999925494194 0.00700000021606683 -0.01502721011638641
v 0.01249999925494194 -0.00700000021606683 -0.01502721011638641
v -0.01649999991059303 -0.00700000021606683 -0.01502721011638641
v 0.00450000027194619 0.00350000010803341 -0.0190272107720375
v 0.00450000027194619 -0.00350000010803341 -0.0190272107720375
v 0.00349999987520277 0.00350000010803341 -0.02002720907330513
v 0.00349999987520277 0.00350000010803341 -0.0190272107720375
v 0.00500000035390257 0.00350000010803341 -0.02102721109986305
v 0.00650000059977173 0.00350000010803341 -0.02102721109986305
v 0.00650000059977173 -0.00350000010803341 -0.02102721109986305
v 0.00349999987520277 -0.00350000010803341 -0.0190272107720375
v 0.00349999987520277 -0.00350000010803341 -0.02002720907330513
v 0.00500000035390257 -0.00350000010803341 -0.02102721109986305
v -0.01050000078976154 0.00350000010803341 -0.02102721109986305
v -0.01050000078976154 -0.00350000010803341 -0.02102721109986305
v -0.00850000046193599 0.00350000010803341 -0.0190272107720375
v -0.00749999983236193 0.00350000010803341 -0.0190272107720375
v -0.00749999983236193 0.00350000010803341 -0.02002720907330513
v -0.00900000054389238 0.00350000010803341 -0.02102721109986305
v -0.00850000046193599 -0.00350000010803341 -0.0190272107720375
v -0.00749999983236193 -0.00350000010803341 -0.02002720907330513
v -0.00749999983236193 -0.00350000010803341 -0.0190272107720375
v -0.00900000054389238 -0.00350000010803341 -0.02102721109986305
# 76 vertices

vn -1.9801470372790043E-16 5.572799166575493E-16 -1
vn 1.9801470372790043E-16 -5.572799166575493E-16 1
vn 1.980689138365247E-16 -5.574967570920464E-16 1
vn -1.980689138365247E-16 5.574967570920464E-16 -1
vn 1 -8.456776945386935E-18 -1.9797002273993277E-16
vn 8.456776945386935E-18 1 5.568462357885551E-16
vn -1 8.456776945386935E-18 1.9797002273993277E-16
vn -8.456776945386935E-18 -1 -5.568462357885551E-16
vn 0.98078525066375728 -0.19509033858776092 -3.0287187688382566E-16
vn 0.83146959543228144 -0.55557024478912352 -4.73904769593414E-16
vn 0.55557030439376832 -0.83146959543228144 -5.728924279413405E-16
vn 0.19509023427963256 -0.98078531026840208 -5.850354922731782E-16
vn -0.19509026408195496 -0.98078531026840208 -5.076234571577132E-16
vn -0.55557030439376832 -0.83146953582763664 -3.5323306779577734E-16
vn -0.83146953582763664 -0.55557030439376832 -1.448494102440634E-16
vn -0.98078531026840208 -0.19509002566337584 8.548934130048202E-17
vn -0.98078531026840208 0.19509002566337584 3.027634566665771E-16
vn -0.83146953582763664 0.55557030439376832 4.741216100279111E-16
vn -0.55557030439376832 0.83146953582763664 5.731092683758376E-16
vn -0.19509026408195496 0.98078531026840208 5.852523327076753E-16
vn 0.19509023427963256 0.98078531026840208 5.078402975922103E-16
vn 0.55557030439376832 0.83146959543228144 3.5301622736128024E-16
vn 0.83146959543228144 0.55557024478912352 1.448494102440634E-16
vn 0.98078525066375728 0.19509033858776092 -8.548934130048202E-17
vn -1 8.456776945386935E-18 1.9797012861905118E-16
vn 8.565197162635485E-18 1 5.570630762230522E-16
vn 1 -8.456776945386935E-18 -1.9797012861905118E-16
vn -8.565197162635485E-18 -1 -5.570630762230522E-16
vn -0.55470055341720584 4.683753385137379E-16 -0.83205008506774896
vn 0.55470055341720584 4.591596200476111E-16 -0.83205008506774896
# 30 vertex normals

g obj_66285817
s 1
f 1//1 2//1 3//1
f 3//1 2//1 4//1
f 3//1 4//1 5//1
f 4//1 6//1 5//1
f 5//1 6//1 7//1
f 5//1 7//1 8//1
f 8//1 7//1 9//1
f 1//1 8//1 2//1
f 2//1 8//1 9//1
f 2//1 9//1 10//1
f 10//1 9//1 11//1
f 10//1 11//1 6//1
f 6//1 11//1 12//1
f 6//1 12//1 7//1
f 13//2 14//2 15//2
f 15//2 14//2 16//2
f 15//2 16//2 17//2
f 17//2 16//2 18//2
f 17//2 18//2 19//2
f 19//3 20//3 17//3
f 17//3 20//3 21//3
f 17//2 21//2 22//2
f 22//2 21//2 23//2
f 22//2 23//2 24//2
f 25//2 26//2 27//2
f 27//2 26//2 28//2
f 27//2 28//2 15//2
f 15//3 28//3 29//3
f 15//3 29//3 13//3
f 24//2 30//2 22//2
f 22//2 30//2 31//2
f 22//3 31//3 27//3
f 27//2 31//2 32//2
f 27//3 32//3 25//3
f 33//1 34//1 35//1
f 36//1 37//1 38//1
f 39//4 40//4 41//4
f 41//1 40//1 42//1
f 41//4 42//4 43//4
f 43//4 42//4 44//4
f 43//4 44//4 45//4
f 33//1 35//1 38//1
f 38//1 35//1 46//1
f 38//1 46//1 36//1
f 45//4 47//4 43//4
f 43//1 47//1 48//1
f 43//1 48//1 33//1
f 33//4 48//4 49//4
f 33//1 49//1 34//1
f 37//1 50//1 38//1
f 38//4 50//4 51//4
f 38//1 51//1 41//1
f 41//1 51//1 52//1
f 41//1 52//1 39//1
f 2//5 15//5 4//5
f 4//5 15//5 17//5
f 10//6 27//6 2//6
f 2//6 27//6 15//6
f 6//7 22//7 10//7
f 10//7 22//7 27//7
f 4//8 17//8 6//8
f 6//8 17//8 22//8
f 31//9 42//9 32//9
f 32//9 42//9 40//9
f 32//10 40//10 25//10
f 25//10 40//10 39//10
f 25//11 39//11 26//11
f 26//11 39//11 52//11
f 26//12 52//12 28//12
f 28//12 52//12 51//12
f 28//13 51//13 29//13
f 29//13 51//13 50//13
f 29//14 50//14 13//14
f 13//14 50//14 37//14
f 13//15 37//15 14//15
f 14//15 37//15 36//15
f 14//16 36//16 16//16
f 16//16 36//16 46//16
f 16//17 46//17 18//17
f 18//17 46//17 35//17
f 18//18 35//18 19//18
f 19//18 35//18 34//18
f 19//19 34//19 20//19
f 20//19 34//19 49//19
f 20//20 49//20 21//20
f 21//20 49//20 48//20
f 21//21 48//21 23//21
f 23//21 48//21 47//21
f 23//22 47//22 24//22
f 24//22 47//22 45//22
f 24//23 45//23 30//23
f 30//23 45//23 44//23
f 30//24 44//24 31//24
f 31//24 44//24 42//24
f 53//8 54//8 41//8
f 41//8 54//8 38//8
f 54//7 55//7 38//7
f 38//7 55//7 33//7
f 55//6 56//6 33//6
f 33//6 56//6 43//6
f 56//5 53//5 43//5
f 43//5 53//5 41//5
f 53//2 56//2 54//2
f 54//2 56//2 55//2
f 57//25 58//25 8//25
f 8//25 58//25 5//25
f 57//6 8//6 1//6
f 59//26 60//26 61//26
f 61//6 60//6 57//6
f 61//6 57//6 62//6
f 62//6 57//6 1//6
f 63//27 62//27 3//27
f 3//27 62//27 1//27
f 58//8 64//8 65//8
f 3//8 5//8 63//8
f 63//8 5//8 58//8
f 63//8 58//8 66//8
f 66//8 58//8 65//8
f 67//25 68//25 11//25
f 11//25 68//25 12//25
f 69//6 70//6 71//6
f 11//6 9//6 67//6
f 67//6 9//6 69//6
f 67//6 69//6 72//6
f 72//6 69//6 71//6
f 73//27 69//27 7//27
f 7//27 69//27 9//27
f 73//8 7//8 12//8
f 74//28 75//28 76//28
f 76//8 75//8 73//8
f 76//8 73//8 68//8
f 68//8 73//8 12//8
f 63//1 66//1 62//1
f 62//1 66//1 61//1
f 66//29 65//29 61//29
f 61//29 65//29 59//29
f 65//25 64//25 59//25
f 59//25 64//25 60//25
f 57//3 60//3 58//3
f 58//3 60//3 64//3
f 73//3 75//3 69//3
f 69//3 75//3 70//3
f 72//1 76//1 67//1
f 67//1 76//1 68//1
f 71//30 74//30 72//30
f 72//30 74//30 76//30
f 70//27 75//27 71//27
f 71//27 75//27 74//27
#148 polygons

