# Created using Spin 3D

mtllib inner_single_collision

# Vertex Array 
v 0.015 0.001 0.034
v 0.015 -0.004 0.030
v 0.016 -0.004 -0.003
v 0.014 -0.005 0.029
v -0.014 -0.005 0.029
v -0.015 -0.004 0.029
v -0.015 -0.004 0.004
v 0.015 0.003 0.031
v -0.015 -0.000 -0.004
v -0.014 -0.004 0.004
v -0.014 -0.004 -0.000
v -0.015 -0.003 -0.002
v -0.015 0.003 0.031
v 0.016 0.003 -0.003
v -0.015 0.003 0.031
v 0.015 0.003 0.033
v 0.015 0.004 -0.001
v -0.015 0.004 -0.002
v -0.014 0.004 0.031
v -0.015 0.004 0.031
v 0.015 0.004 0.032
v 0.014 0.004 0.031
v -0.015 -0.038 0.061
v -0.015 -0.038 0.054
v -0.016 -0.068 0.049
v 0.015 -0.039 0.054
v 0.015 -0.040 0.053
v -0.009 -0.039 0.062
v -0.014 -0.041 0.062
v 0.015 -0.065 0.042
v -0.009 -0.040 0.053
v -0.015 -0.065 0.042
v -0.015 -0.040 0.062
v -0.015 -0.040 0.062
v 0.009 -0.039 0.062
v 0.015 -0.040 0.061
v -0.015 -0.040 0.053
v 0.015 -0.068 0.049
v 0.015 -0.040 0.062
v 0.014 -0.041 0.062
v 0.015 -0.070 0.045
v 0.015 -0.040 0.062
v -0.015 -0.040 0.061
v 0.015 -0.037 0.062
v -0.015 -0.036 0.062
v -0.007 -0.039 0.062
v 0.009 0.004 0.029
v -0.010 0.004 0.029
v 0.009 -0.040 0.053
v 0.015 -0.006 0.032
v 0.015 -0.036 0.061
v -0.015 0.003 0.035
v 0.015 0.003 0.034

# Normal Array
vn 1.000 -0.003 0.003
vn 0.051 -0.663 0.747
vn 0.000 -0.659 0.752
vn -0.110 -0.276 0.955
vn -0.523 -0.852 -0.015
vn 1.000 0.003 0.002
vn 0.439 -0.898 -0.003
vn -0.994 -0.110 -0.013
vn -0.147 -0.989 -0.022
vn -0.403 -0.913 -0.060
vn -0.415 -0.910 -0.020
vn -0.608 -0.781 -0.142
vn -0.923 -0.362 -0.133
vn -0.115 -0.248 0.962
vn 1.000 0.003 0.002
vn -0.104 0.028 0.994
vn 0.993 0.107 0.055
vn 0.811 0.585 -0.009
vn 0.966 0.258 -0.001
vn -0.014 0.475 -0.880
vn 0.014 0.833 -0.553
vn -0.066 0.383 0.921
vn -0.097 0.106 0.990
vn -0.027 0.635 0.772
vn 0.122 0.648 0.752
vn 0.000 0.993 0.116
vn 0.258 0.966 0.001
vn 0.708 0.706 -0.005
vn -0.035 -0.936 -0.351
vn 0.031 -0.003 -1.000
vn -0.034 -0.488 -0.872
vn 0.000 -1.000 -0.019
vn -0.000 -1.000 -0.019
vn 0.000 1.000 -0.000
vn -0.000 1.000 -0.000
vn -0.168 0.986 0.005
vn -1.000 -0.000 -0.001
vn -1.000 0.000 -0.000
vn -0.966 0.259 0.007
vn -0.680 0.733 0.013
vn -1.000 0.003 0.000
vn 0.023 0.888 -0.460
vn 0.025 1.000 0.001
vn -0.107 0.227 0.968
vn 0.519 0.367 -0.772
vn -0.001 0.515 -0.857
vn -0.000 0.412 -0.911
vn 0.000 0.412 -0.911
vn -0.257 -0.400 0.880
vn -0.213 0.177 0.961
vn -0.666 0.020 0.745
vn -0.000 0.711 0.703
vn 0.134 0.981 0.142
vn 0.039 0.997 0.061
vn -0.098 0.416 -0.904
vn -0.022 0.433 -0.901
vn -0.021 0.417 -0.909
vn 0.259 -0.401 0.879
vn 0.153 0.491 0.858
vn 0.991 -0.125 -0.043
vn 0.968 -0.099 0.231
vn 0.180 0.871 0.456
vn 0.184 0.792 0.581
vn 0.009 -0.949 0.315
vn -1.000 0.008 -0.026
vn -0.963 -0.042 0.265
vn -0.966 -0.099 0.239
vn -1.000 -0.002 0.013
vn -0.010 -0.596 -0.803
vn -0.092 -0.902 -0.421
vn 0.000 -0.423 0.906
vn 0.000 -0.423 0.906
vn 0.000 -0.305 0.952
vn 0.000 -0.305 0.952
vn -0.707 -0.283 0.648
vn 1.000 -0.000 -0.000
vn 1.000 -0.001 0.000
vn 0.696 -0.291 0.657
vn -0.005 0.075 0.997
vn 0.500 -0.488 -0.715
vn 0.009 -0.043 -0.999
vn 0.365 0.192 -0.911
vn 0.285 0.127 -0.950
vn 0.000 -0.067 -0.998
vn 0.000 -0.556 -0.831
vn 0.024 -0.564 -0.825
vn 0.012 -0.563 -0.826
vn 0.028 -0.993 -0.118
vn 0.019 -0.994 -0.112
vn 1.000 -0.000 -0.001
vn 0.694 -0.411 -0.591
vn 0.487 -0.863 -0.133
vn 0.742 -0.663 -0.096
vn 1.000 -0.001 -0.002
vn 0.084 -0.990 -0.117
vn 0.284 -0.951 -0.123
vn 0.248 -0.129 0.960
vn 0.043 -0.104 0.994
vn 0.000 -0.104 0.995
vn 0.002 -0.003 1.000
vn -0.098 -0.994 -0.043
vn -0.974 -0.218 -0.055
vn -0.364 -0.514 -0.777
vn -0.969 -0.145 -0.202
vn -0.076 -0.023 -0.997
vn 0.680 -0.103 0.726
vn 0.958 0.023 0.284
vn 0.002 0.998 -0.063
vn 0.368 0.368 -0.853
vn 0.690 0.690 -0.219
vn -0.117 0.282 0.952
vn -0.055 -0.077 0.996
vn -0.156 0.484 0.861
vn -0.683 -0.053 0.729
vn -0.963 -0.042 0.265
vn -0.834 -0.008 0.551
vn -0.363 -0.931 -0.038
vn -0.796 -0.603 -0.046
vn 0.960 0.024 0.280
vn 0.750 0.642 -0.157
vn -0.957 0.159 0.244
vn -0.388 0.222 -0.894
vn -0.682 0.183 -0.708
vn -0.965 0.259 0.045
vn 0.993 0.107 0.055
vn 0.925 0.278 0.261
vn 0.882 0.271 0.385
vn 0.908 0.240 0.343
vn 0.577 0.769 0.273
vn -0.013 0.932 0.363
vn -0.008 0.946 0.324
vn -0.157 0.921 -0.356
vn -0.376 0.404 -0.834
vn -0.671 0.722 0.169
vn -0.159 0.932 0.324
vn 0.000 -0.999 -0.049
vn 0.000 -0.305 0.952
vn 0.000 -0.305 0.952
vn -1.000 -0.000 -0.000
vn -1.000 0.000 0.000
vn -1.000 0.000 0.000
vn -1.000 0.012 0.017
vn 0.000 0.574 0.819
vn -0.000 0.574 0.819
vn 1.000 0.000 0.000
vn 1.000 0.000 0.000
vn 1.000 0.000 0.000
vn 1.000 0.000 0.000
vn 0.000 0.999 -0.039
vn 0.000 0.993 0.116

# Texture Coordinate Array 
vt 0.000 0.000
vt 0.000 0.000
vt 0.000 0.000
vt 0.000 0.000
vt 0.000 0.000
vt 0.000 0.000
vt 0.000 0.000
vt 0.000 0.000
vt 0.000 0.000
vt 0.000 0.000
vt 0.000 0.000
vt 0.000 0.000
vt 0.000 0.000
vt 0.000 0.000
vt 0.000 0.000
vt 0.000 0.000
vt 0.000 0.000
vt 0.000 0.000
vt 0.000 0.000
vt 0.000 0.000
vt 0.000 0.000
vt 0.000 0.000
vt 0.000 0.000
vt 0.000 0.000
vt 0.000 0.000
vt 0.000 0.000
vt 0.000 0.000
vt 0.000 0.000
vt 0.000 0.000
vt 0.000 0.000
vt 0.000 0.000
vt 0.000 0.000
vt 0.000 0.000
vt 0.000 0.000
vt 0.000 0.000
vt 0.000 0.000
vt 0.000 0.000
vt 0.000 0.000
vt 0.000 0.000
vt 0.000 0.000
vt 0.000 0.000
vt 0.000 0.000
vt 0.000 0.000
vt 0.000 0.000
vt 0.000 0.000
vt 0.000 0.000
vt 0.000 0.000
vt 0.000 0.000
vt 0.000 0.000
vt 0.000 0.000
vt 0.000 0.000
vt 0.000 0.000
vt 0.000 0.000
vt 0.000 0.000
vt 0.000 0.000
vt 0.000 0.000
vt 0.000 0.000
vt 0.000 0.000
vt 0.000 0.000
vt 0.000 0.000
vt 0.000 0.000
vt 0.000 0.000
vt 0.000 0.000
vt 0.000 0.000
vt 0.000 0.000
vt 0.000 0.000
vt 0.000 0.000
vt 0.000 0.000
vt 0.000 0.000
vt 0.000 0.000
vt 0.000 0.000
vt 0.000 0.000
vt 0.000 0.000
vt 0.000 0.000
vt 0.000 0.000
vt 0.000 0.000
vt 0.000 0.000
vt 0.000 0.000
vt 0.000 0.000
vt 0.000 0.000
vt 0.000 0.000
vt 0.000 0.000
vt 0.000 0.000
vt 0.000 0.000
vt 0.000 0.000
vt 0.000 0.000
vt 0.000 0.000
vt 0.000 0.000
vt 0.000 0.000
vt 0.000 0.000
vt 0.000 0.000
vt 0.000 0.000
vt 0.000 0.000
vt 0.000 0.000
vt 0.000 0.000
vt 0.000 0.000
vt 0.000 0.000
vt 0.000 0.000
vt 0.000 0.000
vt 0.000 0.000
vt 0.000 0.000
vt 0.000 0.000
vt 0.000 0.000
vt 0.000 0.000
vt 0.000 0.000
vt 0.000 0.000
vt 0.000 0.000
vt 0.000 0.000
vt 0.000 0.000
vt 0.000 0.000
vt 0.000 0.000
vt 0.000 0.000
vt 0.000 0.000
vt 0.000 0.000
vt 0.000 0.000
vt 0.000 0.000
vt 0.000 0.000
vt 0.000 0.000
vt 0.000 0.000
vt 0.000 0.000
vt 0.000 0.000
vt 0.000 0.000
vt 0.000 0.000
vt 0.000 0.000
vt 0.000 0.000
vt 0.000 0.000
vt 0.000 0.000
vt 0.000 0.000
vt 0.000 0.000
vt 0.000 0.000
vt 0.000 0.000
vt 0.000 0.000
vt 0.000 0.000
vt 0.000 0.000
vt 0.000 0.000
vt 0.000 0.000
vt 0.000 0.000
vt 0.000 0.000
vt 0.000 0.000
vt 0.000 0.000
vt 0.000 0.000
vt 0.000 0.000
vt 0.000 0.000
vt 0.000 0.000
vt 0.000 0.000
vt 0.000 0.000
vt 0.000 0.000
vt 0.000 0.000
vt 0.000 0.000
vt 0.000 0.000
vt 0.000 0.000
vt 0.000 0.000
vt 0.000 0.000
vt 0.000 0.000
vt 0.000 0.000
vt 0.000 0.000
vt 0.000 0.000
vt 0.000 0.000
vt 0.000 0.000
vt 0.000 0.000
vt 0.000 0.000
vt 0.000 0.000
vt 0.000 0.000
vt 0.000 0.000
vt 0.000 0.000
vt 0.000 0.000
vt 0.000 0.000
vt 0.000 0.000
vt 0.000 0.000
vt 0.000 0.000
vt 0.000 0.000
vt 0.000 0.000
vt 0.000 0.000
vt 0.000 0.000
vt 0.000 0.000
vt 0.000 0.000
vt 0.000 0.000
vt 0.000 0.000
vt 0.000 0.000
vt 0.000 0.000
vt 0.000 0.000
vt 0.000 0.000
vt 0.000 0.000
vt 0.000 0.000
vt 0.000 0.000
vt 0.000 0.000
vt 0.000 0.000
vt 0.000 0.000
vt 0.000 0.000
vt 0.000 0.000
vt 0.000 0.000
vt 0.000 0.000
vt 0.000 0.000
vt 0.000 0.000
vt 0.000 0.000
vt 0.000 0.000
vt 0.000 0.000
vt 0.000 0.000
vt 0.000 0.000
vt 0.000 0.000
vt 0.000 0.000
vt 0.000 0.000
vt 0.000 0.000
vt 0.000 0.000
vt 0.000 0.000
vt 0.000 0.000
vt 0.000 0.000
vt 0.000 0.000
vt 0.000 0.000
vt 0.000 0.000
vt 0.000 0.000
vt 0.000 0.000
vt 0.000 0.000
vt 0.000 0.000
vt 0.000 0.000
vt 0.000 0.000
vt 0.000 0.000
vt 0.000 0.000
vt 0.000 0.000
vt 0.000 0.000
vt 0.000 0.000
vt 0.000 0.000
vt 0.000 0.000
vt 0.000 0.000
vt 0.000 0.000
vt 0.000 0.000
vt 0.000 0.000
vt 0.000 0.000
vt 0.000 0.000
vt 0.000 0.000
vt 0.000 0.000
vt 0.000 0.000
vt 0.000 0.000
vt 0.000 0.000
vt 0.000 0.000
vt 0.000 0.000
vt 0.000 0.000
vt 0.000 0.000
vt 0.000 0.000
vt 0.000 0.000
vt 0.000 0.000
vt 0.000 0.000
vt 0.000 0.000
vt 0.000 0.000
vt 0.000 0.000
vt 0.000 0.000
vt 0.000 0.000
vt 0.000 0.000
vt 0.000 0.000
vt 0.000 0.000
vt 0.000 0.000
vt 0.000 0.000
vt 0.000 0.000
vt 0.000 0.000
vt 0.000 0.000
vt 0.000 0.000
vt 0.000 0.000
vt 0.000 0.000
vt 0.000 0.000
vt 0.000 0.000
vt 0.000 0.000
vt 0.000 0.000
vt 0.000 0.000
vt 0.000 0.000
vt 0.000 0.000
vt 0.000 0.000
vt 0.000 0.000
vt 0.000 0.000
vt 0.000 0.000
vt 0.000 0.000
vt 0.000 0.000
vt 0.000 0.000
vt 0.000 0.000
vt 0.000 0.000
vt 0.000 0.000
vt 0.000 0.000
vt 0.000 0.000
vt 0.000 0.000
vt 0.000 0.000
vt 0.000 0.000
vt 0.000 0.000
vt 0.000 0.000
vt 0.000 0.000
vt 0.000 0.000
vt 0.000 0.000
vt 0.000 0.000
vt 0.000 0.000
vt 0.000 0.000
vt 0.000 0.000
vt 0.000 0.000
vt 0.000 0.000
vt 0.000 0.000
vt 0.000 0.000
vt 0.000 0.000
vt 0.000 0.000
vt 0.000 0.000
vt 0.000 0.000
vt 0.000 0.000
vt 0.000 0.000
vt 0.000 0.000
vt 0.000 0.000
vt 0.000 0.000
vt 0.000 0.000
vt 0.000 0.000
vt 0.000 0.000
vt 0.000 0.000
vt 0.000 0.000
vt 0.000 0.000
vt 0.000 0.000
vt 0.000 0.000
vt 0.000 0.000
vt 0.000 0.000
vt 0.000 0.000
vt 0.000 0.000
vt 0.000 0.000
vt 0.000 0.000
vt 0.000 0.000
vt 0.000 0.000
vt 0.000 0.000
vt 0.000 0.000
vt 0.000 0.000
vt 0.000 0.000
vt 0.000 0.000
vt 0.000 0.000
vt 0.000 0.000
vt 0.000 0.000
vt 0.000 0.000
vt 0.000 0.000
vt 0.000 0.000
vt 0.000 0.000
vt 0.000 0.000
vt 0.000 0.000
vt 0.000 0.000
vt 0.000 0.000
vt 0.000 0.000
vt 0.000 0.000
vt 0.000 0.000
vt 0.000 0.000
vt 0.000 0.000
vt 0.000 0.000
vt 0.000 0.000
vt 0.000 0.000
vt 0.000 0.000
vt 0.000 0.000
vt 0.000 0.000
vt 0.000 0.000
vt 0.000 0.000
vt 0.000 0.000
vt 0.000 0.000
vt 0.000 0.000
vt 0.000 0.000
vt 0.000 0.000
vt 0.000 0.000
vt 0.000 0.000
vt 0.000 0.000
vt 0.000 0.000
vt 0.000 0.000
vt 0.000 0.000
vt 0.000 0.000
vt 0.000 0.000
vt 0.000 0.000
vt 0.000 0.000
vt 0.000 0.000
vt 0.000 0.000
vt 0.000 0.000
vt 0.000 0.000
vt 0.000 0.000
vt 0.000 0.000
vt 0.000 0.000
vt 0.000 0.000
vt 0.000 0.000
vt 0.000 0.000
vt 0.000 0.000
vt 0.000 0.000
vt 0.000 0.000
vt 0.000 0.000
vt 0.000 0.000
vt 0.000 0.000
vt 0.000 0.000
vt 0.000 0.000
vt 0.000 0.000
vt 0.000 0.000
vt 0.000 0.000
vt 0.000 0.000
vt 0.000 0.000
vt 0.000 0.000
vt 0.000 0.000
vt 0.000 0.000
vt 0.000 0.000
vt 0.000 0.000
vt 0.000 0.000
vt 0.000 0.000
vt 0.000 0.000
vt 0.000 0.000
vt 0.000 0.000
vt 0.000 0.000
vt 0.000 0.000
vt 0.000 0.000
vt 0.000 0.000
vt 0.000 0.000
vt 0.000 0.000
vt 0.000 0.000
vt 0.000 0.000
vt 0.000 0.000
vt 0.000 0.000
vt 0.000 0.000
vt 0.000 0.000
vt 0.000 0.000
vt 0.000 0.000
vt 0.000 0.000
vt 0.000 0.000
vt 0.000 0.000
vt 0.000 0.000
vt 0.000 0.000
vt 0.000 0.000
vt 0.000 0.000
vt 0.000 0.000
vt 0.000 0.000
vt 0.000 0.000
vt 0.000 0.000
vt 0.000 0.000
vt 0.000 0.000
vt 0.000 0.000
vt 0.000 0.000
vt 0.000 0.000
vt 0.000 0.000
vt 0.000 0.000
vt 0.000 0.000
vt 0.000 0.000
vt 0.000 0.000
vt 0.000 0.000
vt 0.000 0.000
vt 0.000 0.000
vt 0.000 0.000
vt 0.000 0.000
vt 0.000 0.000
vt 0.000 0.000
vt 0.000 0.000
vt 0.000 0.000
vt 0.000 0.000
vt 0.000 0.000
vt 0.000 0.000
vt 0.000 0.000
vt 0.000 0.000
vt 0.000 0.000
vt 0.000 0.000
vt 0.000 0.000
vt 0.000 0.000
vt 0.000 0.000
vt 0.000 0.000

# Facets
usemtl None
f 1/1/1 2/2/1 3/3/1
f 4/4/2 2/5/2 1/6/2
f 5/7/3 4/8/3 1/9/3
f 6/10/4 5/11/4 1/12/4
f 6/13/5 7/14/5 5/15/5
f 3/16/6 8/17/6 1/18/6
f 3/19/7 2/20/7 4/21/7
f 6/22/8 9/23/8 7/24/8
f 5/25/9 10/26/9 11/27/9
f 7/28/10 11/29/10 10/30/10
f 7/31/11 10/32/11 5/33/11
f 7/34/12 12/35/12 11/36/12
f 9/37/13 12/38/13 7/39/13
f 1/40/14 13/41/14 6/42/14
f 8/43/15 3/44/15 14/45/15
f 1/46/16 15/47/16 13/48/16
f 8/49/17 16/50/17 1/51/17
f 17/52/18 16/53/18 14/54/18
f 16/55/19 8/56/19 14/57/19
f 9/58/20 18/59/20 14/60/20
f 14/61/21 18/62/21 17/63/21
f 19/64/22 20/65/22 1/66/22
f 20/67/23 15/68/23 1/69/23
f 1/70/24 21/71/24 19/72/24
f 16/73/25 21/74/25 1/75/25
f 22/76/26 19/77/26 21/78/26
f 17/79/27 22/80/27 21/81/27
f 16/82/28 17/83/28 21/84/28
f 12/85/29 3/86/29 11/87/29
f 14/88/30 3/89/30 9/90/30
f 12/91/31 9/92/31 3/93/31
f 3/94/32 5/95/32 11/96/32
f 4/97/33 5/98/33 3/99/33
f 22/100/34 18/101/34 19/102/34
f 17/103/35 18/104/35 22/105/35
f 19/106/36 18/107/36 20/108/36
f 9/109/37 6/110/37 18/111/37
f 13/112/38 18/113/38 6/114/38
f 13/115/39 15/116/39 18/117/39
f 15/118/40 20/119/40 18/120/40
f 23/121/41 24/122/41 25/123/41
f 26/124/42 27/125/42 24/126/42
f 26/127/43 24/128/43 23/129/43
f 28/130/44 23/131/44 29/132/44
f 27/133/45 26/134/45 30/135/45
f 31/136/46 24/137/46 27/138/46
f 27/139/47 32/140/47 31/141/47
f 30/142/48 32/143/48 27/144/48
f 33/145/49 25/146/49 29/147/49
f 33/148/50 29/149/50 23/150/50
f 23/151/51 34/152/51 33/153/51
f 28/154/52 35/155/52 23/156/52
f 36/157/53 26/158/53 35/159/53
f 35/160/54 26/161/54 23/162/54
f 37/163/55 32/164/55 24/165/55
f 37/166/56 24/167/56 31/168/56
f 37/169/57 31/170/57 32/171/57
f 38/172/58 39/173/58 40/174/58
f 39/175/59 35/176/59 40/177/59
f 30/178/60 38/179/60 41/180/60
f 42/181/61 38/182/61 36/183/61
f 36/184/62 35/185/62 42/186/62
f 35/187/63 39/188/63 42/189/63
f 41/190/64 38/191/64 25/192/64
f 32/193/65 25/194/65 24/195/65
f 43/196/66 34/197/66 23/198/66
f 43/199/67 25/200/67 34/201/67
f 43/202/68 23/203/68 25/204/68
f 41/205/69 32/206/69 30/207/69
f 32/208/70 41/209/70 25/210/70
f 40/211/71 25/212/71 38/213/71
f 25/214/72 40/215/72 29/216/72
f 40/217/73 35/218/73 29/219/73
f 35/220/74 28/221/74 29/222/74
f 33/223/75 34/224/75 25/225/75
f 30/226/76 26/227/76 36/228/76
f 30/229/77 36/230/77 38/231/77
f 42/232/78 39/233/78 38/234/78
f 44/235/79 45/236/79 46/237/79
f 2/238/80 27/239/80 4/240/80
f 47/241/81 4/242/81 48/243/81
f 2/244/82 47/245/82 8/246/82
f 47/247/83 2/248/83 4/249/83
f 5/250/84 48/251/84 4/252/84
f 5/253/85 4/254/85 37/255/85
f 49/256/86 4/257/86 27/258/86
f 37/259/87 4/260/87 49/261/87
f 49/262/88 27/263/88 40/264/88
f 49/265/89 40/266/89 37/267/89
f 50/268/90 2/269/90 8/270/90
f 26/271/91 27/272/91 2/273/91
f 26/274/92 42/275/92 27/276/92
f 26/277/93 36/278/93 42/279/93
f 50/280/94 26/281/94 2/282/94
f 40/283/95 27/284/95 39/285/95
f 27/286/96 42/287/96 39/288/96
f 39/289/97 44/290/97 40/291/97
f 44/292/98 35/293/98 40/294/98
f 35/295/99 46/296/99 28/297/99
f 46/298/100 35/299/100 44/300/100
f 29/301/101 33/302/101 37/303/101
f 37/304/102 43/305/102 24/306/102
f 6/307/103 5/308/103 37/309/103
f 6/310/104 37/311/104 24/312/104
f 48/313/105 5/314/105 6/315/105
f 44/316/106 39/317/106 42/318/106
f 44/319/107 42/320/107 36/321/107
f 22/322/108 47/323/108 48/324/108
f 22/325/109 8/326/109 47/327/109
f 22/328/110 21/329/110 8/330/110
f 46/331/111 29/332/111 28/333/111
f 33/334/112 46/335/112 45/336/112
f 46/337/113 33/338/113 29/339/113
f 34/340/114 33/341/114 45/342/114
f 34/343/115 23/344/115 43/345/115
f 34/346/116 45/347/116 23/348/116
f 37/349/117 33/350/117 34/351/117
f 34/352/118 43/353/118 37/354/118
f 51/355/119 44/356/119 36/357/119
f 8/358/120 21/359/120 16/360/120
f 52/361/121 23/362/121 45/363/121
f 48/364/122 6/365/122 15/366/122
f 6/367/123 13/368/123 15/369/123
f 15/370/124 13/371/124 52/372/124
f 8/373/125 16/374/125 1/375/125
f 1/376/126 16/377/126 53/378/126
f 53/379/127 44/380/127 1/381/127
f 51/382/128 1/383/128 44/384/128
f 53/385/129 16/386/129 21/387/129
f 19/388/130 52/389/130 53/390/130
f 53/391/131 21/392/131 19/393/131
f 20/394/132 19/395/132 48/396/132
f 48/397/133 15/398/133 20/399/133
f 15/400/134 52/401/134 20/402/134
f 20/403/135 52/404/135 19/405/135
f 29/406/136 37/407/136 40/408/136
f 29/409/137 35/410/137 28/411/137
f 29/412/138 40/413/138 35/414/138
f 13/415/139 6/416/139 24/417/139
f 13/418/140 43/419/140 23/420/140
f 24/421/141 43/422/141 13/423/141
f 13/424/142 23/425/142 52/426/142
f 52/427/143 44/428/143 53/429/143
f 52/430/144 45/431/144 44/432/144
f 1/433/145 50/434/145 8/435/145
f 1/436/146 26/437/146 50/438/146
f 36/439/147 26/440/147 1/441/147
f 1/442/148 51/443/148 36/444/148
f 19/445/149 22/446/149 48/447/149
f 21/448/150 22/449/150 19/450/150

# Thank you for using Spin 3D

