# Created using Spin 3D

mtllib inner_double_collision

# Vertex Array 
v 0.041 -0.040 -0.062
v 0.016 -0.040 -0.062
v 0.048 -0.035 -0.060
v 0.016 -0.044 -0.052
v 0.016 -0.069 -0.044
v 0.047 -0.042 -0.053
v 0.047 -0.064 -0.042
v 0.047 -0.042 -0.052
v 0.016 -0.064 -0.042
v 0.047 -0.044 -0.061
v 0.046 -0.069 -0.043
v 0.046 -0.065 -0.042
v 0.047 -0.069 -0.047
v 0.017 -0.067 -0.042
v 0.016 -0.043 -0.061
v 0.016 -0.067 -0.050
v 0.047 -0.067 -0.050
v 0.017 -0.069 -0.047
v 0.047 -0.041 -0.061
v -0.016 -0.044 -0.052
v -0.017 -0.065 -0.042
v -0.016 -0.069 -0.044
v -0.016 -0.043 -0.061
v -0.016 -0.040 -0.062
v -0.047 -0.035 -0.060
v -0.047 -0.041 -0.061
v -0.047 -0.039 -0.062
v -0.016 -0.070 -0.046
v -0.017 -0.069 -0.049
v -0.047 -0.043 -0.061
v -0.041 -0.040 -0.062
v -0.047 -0.053 -0.055
v -0.047 -0.065 -0.042
v -0.047 -0.067 -0.049
v -0.047 -0.042 -0.053
v -0.047 -0.044 -0.052
v -0.047 -0.068 -0.043
v -0.046 -0.070 -0.048
v 0.047 -0.005 -0.030
v -0.046 -0.004 -0.027
v -0.047 0.004 -0.029
v 0.047 0.004 -0.030
v 0.046 0.003 -0.025
v -0.046 0.004 -0.029
v 0.047 0.004 -0.029
v 0.039 0.000 -0.015
v 0.015 0.002 0.003
v 0.014 -0.001 0.004
v -0.015 -0.000 0.004
v -0.015 -0.003 0.003
v -0.043 -0.003 -0.020
v -0.038 -0.004 -0.014
v -0.016 0.003 0.003
v -0.037 0.004 -0.013
v 0.008 0.001 0.004
v -0.016 0.004 -0.000
v -0.043 0.004 -0.020
v -0.008 -0.000 0.004
v 0.011 0.004 0.002
v 0.025 0.004 -0.007
v -0.047 -0.004 -0.027
v 0.046 -0.005 -0.029
v 0.014 -0.004 0.001
v -0.016 -0.004 0.001
v 0.042 -0.004 -0.018
v 0.036 -0.004 -0.012
v 0.046 -0.004 -0.027
v 0.047 -0.044 -0.052
v -0.048 -0.005 -0.030
v -0.047 0.002 -0.035
v -0.047 -0.036 -0.061
v 0.047 -0.035 -0.061
v 0.047 0.002 -0.034
v -0.047 -0.000 -0.037
v -0.047 -0.033 -0.060
v 0.047 -0.037 -0.062
v 0.000 0.004 -0.029
v 0.047 -0.000 -0.037
v 0.047 -0.033 -0.060
v -0.047 0.003 -0.032
v 0.041 0.003 -0.032

# Normal Array
vn 0.000 0.379 -0.925
vn -0.179 0.910 0.375
vn -1.000 0.007 0.003
vn 1.000 0.002 0.003
vn -0.004 0.423 0.906
vn 0.738 0.295 0.607
vn -0.023 0.691 0.723
vn 0.556 0.546 0.627
vn 1.000 -0.000 -0.000
vn 0.591 -0.352 0.726
vn 0.856 -0.364 0.367
vn -0.013 0.032 0.999
vn -1.000 -0.004 -0.017
vn -0.999 -0.017 -0.036
vn 0.024 0.408 0.913
vn 0.000 -0.422 -0.907
vn -0.001 -0.423 -0.906
vn -0.999 0.017 0.036
vn -0.014 -0.669 0.743
vn -0.993 -0.014 0.118
vn -0.992 -0.109 -0.070
vn 1.000 -0.020 -0.022
vn 0.999 0.011 -0.035
vn 0.002 -0.332 -0.943
vn 0.000 -0.160 -0.987
vn -0.004 -0.259 -0.966
vn 0.078 0.286 -0.955
vn 0.985 0.019 -0.173
vn 0.008 0.409 0.913
vn 0.010 -0.433 0.901
vn -0.010 -0.703 -0.711
vn -0.004 -0.996 0.091
vn 0.006 -1.000 0.014
vn 0.000 -0.771 -0.637
vn 0.999 0.014 0.030
vn 1.000 -0.003 -0.012
vn 1.000 0.005 0.002
vn 0.179 0.910 0.375
vn 0.005 -0.259 -0.966
vn 0.010 0.429 -0.903
vn 1.000 -0.013 -0.026
vn 1.000 -0.014 -0.028
vn 0.000 -0.322 -0.947
vn 0.000 -0.153 -0.988
vn -0.009 -0.109 -0.994
vn -0.000 -0.022 -1.000
vn -0.961 -0.105 -0.254
vn -0.998 -0.014 -0.058
vn -1.000 0.000 0.001
vn -0.320 -0.395 -0.861
vn -1.000 -0.001 -0.001
vn 0.000 0.610 0.792
vn 0.006 0.659 0.752
vn -0.495 0.386 0.778
vn 0.000 0.422 0.906
vn -0.000 0.423 0.906
vn -0.016 -0.958 0.285
vn 0.015 -0.526 0.850
vn -0.015 -0.280 0.960
vn -0.864 -0.213 -0.456
vn -0.999 -0.030 -0.025
vn 0.000 -0.423 -0.906
vn 0.000 -0.423 -0.906
vn -0.996 -0.059 -0.062
vn -0.839 -0.531 -0.116
vn -0.009 -0.632 -0.775
vn 0.022 -0.935 -0.354
vn -0.002 -0.986 0.169
vn -0.026 -0.261 -0.965
vn -0.001 0.018 -1.000
vn 0.950 -0.005 0.313
vn -0.001 0.996 -0.085
vn 0.000 1.000 -0.014
vn 0.589 0.082 0.804
vn -0.010 -0.309 0.951
vn -0.330 -0.916 0.229
vn -0.559 0.306 0.771
vn -0.018 0.379 0.925
vn -0.186 0.936 0.298
vn -0.066 0.998 0.021
vn 0.000 -0.072 0.997
vn -0.000 0.067 0.998
vn 0.005 0.010 1.000
vn 0.000 1.000 0.000
vn -0.022 0.952 0.305
vn -0.489 -0.830 0.269
vn -0.031 -0.262 -0.965
vn -0.911 0.027 0.411
vn -0.573 -0.262 0.777
vn -0.623 -0.001 0.782
vn -0.740 0.010 0.673
vn 0.000 -0.999 0.038
vn -0.015 -0.895 -0.446
vn -0.007 -1.000 0.022
vn 0.289 0.860 0.420
vn 0.005 0.592 0.806
vn -0.049 0.334 0.941
vn 0.184 0.422 0.888
vn 0.361 0.852 0.381
vn 0.374 0.846 0.380
vn 0.443 0.765 0.467
vn 0.472 0.673 0.569
vn -0.744 0.018 0.668
vn -0.917 0.009 0.400
vn 0.823 0.062 0.565
vn 0.883 -0.104 0.458
vn 0.467 -0.824 0.322
vn 0.078 -0.990 0.120
vn -0.315 -0.819 0.480
vn -0.041 -0.997 0.060
vn 0.014 -0.715 0.699
vn -0.007 -0.870 0.493
vn 0.348 -0.895 0.280
vn 0.723 -0.118 0.681
vn 0.592 0.036 0.805
vn 0.410 -0.626 0.663
vn -0.000 1.000 0.000
vn 0.000 1.000 -0.000
vn -0.021 0.999 0.029
vn 0.000 1.000 0.000
vn 0.748 -0.337 0.572
vn -0.940 -0.183 0.287
vn 0.000 -0.961 -0.277
vn 0.001 -0.958 -0.286
vn -0.009 -0.109 -0.994
vn -0.995 -0.085 -0.048
vn -0.897 -0.437 -0.067
vn 0.999 -0.025 -0.027
vn 0.897 -0.437 -0.059
vn 0.940 -0.184 0.287
vn -1.000 0.001 -0.001
vn -0.360 -0.483 0.798
vn -0.906 -0.223 0.359
vn -0.956 -0.009 0.294
vn -0.027 0.160 0.987
vn -0.523 0.176 0.834
vn 1.000 -0.001 0.001
vn -0.999 -0.027 -0.031
vn -0.982 0.106 -0.157
vn -1.000 0.001 -0.001
vn 0.937 0.196 -0.288
vn -0.272 0.548 -0.791
vn -0.463 0.509 -0.726
vn 0.960 0.051 -0.274
vn -0.001 0.089 -0.996
vn -0.998 -0.013 -0.060
vn -1.000 -0.000 0.000
vn -0.001 0.996 -0.085
vn -0.000 1.000 -0.015
vn 0.818 -0.010 0.576
vn 0.001 0.689 -0.725
vn 0.000 0.501 -0.866
vn -0.001 0.457 -0.889
vn 0.002 0.297 -0.955
vn 0.961 0.049 -0.272
vn -0.001 0.981 -0.193
vn 0.676 0.062 0.735
vn 1.000 0.001 -0.001
vn 1.000 0.003 -0.003
vn 0.000 0.574 -0.819
vn 0.000 0.017 -1.000
vn 0.022 -0.040 -0.999
vn 0.000 -0.159 -0.987
vn 0.234 0.557 -0.797
vn 0.552 0.480 -0.682
vn 0.043 0.939 -0.342
vn -0.000 0.976 -0.216
vn -0.001 0.859 -0.512
vn 0.001 0.902 -0.432
vn -0.810 0.545 -0.219
vn 0.000 1.000 -0.014
vn 0.000 -0.523 0.852
vn 0.000 -0.523 0.852
vn 0.000 0.657 -0.754
vn 0.000 0.161 0.987
vn 0.000 0.161 0.987
vn -0.000 -0.022 -1.000
vn -0.000 -0.153 -0.988
vn 0.000 1.000 -0.002
vn 0.000 0.574 -0.819

# Texture Coordinate Array 
vt 0.000 0.000
vt 0.000 0.000
vt 0.000 0.000
vt 0.000 0.000
vt 0.000 0.000
vt 0.000 0.000
vt 0.000 0.000
vt 0.000 0.000
vt 0.000 0.000
vt 0.000 0.000
vt 0.000 0.000
vt 0.000 0.000
vt 0.000 0.000
vt 0.000 0.000
vt 0.000 0.000
vt 0.000 0.000
vt 0.000 0.000
vt 0.000 0.000
vt 0.000 0.000
vt 0.000 0.000
vt 0.000 0.000
vt 0.000 0.000
vt 0.000 0.000
vt 0.000 0.000
vt 0.000 0.000
vt 0.000 0.000
vt 0.000 0.000
vt 0.000 0.000
vt 0.000 0.000
vt 0.000 0.000
vt 0.000 0.000
vt 0.000 0.000
vt 0.000 0.000
vt 0.000 0.000
vt 0.000 0.000
vt 0.000 0.000
vt 0.000 0.000
vt 0.000 0.000
vt 0.000 0.000
vt 0.000 0.000
vt 0.000 0.000
vt 0.000 0.000
vt 0.000 0.000
vt 0.000 0.000
vt 0.000 0.000
vt 0.000 0.000
vt 0.000 0.000
vt 0.000 0.000
vt 0.000 0.000
vt 0.000 0.000
vt 0.000 0.000
vt 0.000 0.000
vt 0.000 0.000
vt 0.000 0.000
vt 0.000 0.000
vt 0.000 0.000
vt 0.000 0.000
vt 0.000 0.000
vt 0.000 0.000
vt 0.000 0.000
vt 0.000 0.000
vt 0.000 0.000
vt 0.000 0.000
vt 0.000 0.000
vt 0.000 0.000
vt 0.000 0.000
vt 0.000 0.000
vt 0.000 0.000
vt 0.000 0.000
vt 0.000 0.000
vt 0.000 0.000
vt 0.000 0.000
vt 0.000 0.000
vt 0.000 0.000
vt 0.000 0.000
vt 0.000 0.000
vt 0.000 0.000
vt 0.000 0.000
vt 0.000 0.000
vt 0.000 0.000
vt 0.000 0.000
vt 0.000 0.000
vt 0.000 0.000
vt 0.000 0.000
vt 0.000 0.000
vt 0.000 0.000
vt 0.000 0.000
vt 0.000 0.000
vt 0.000 0.000
vt 0.000 0.000
vt 0.000 0.000
vt 0.000 0.000
vt 0.000 0.000
vt 0.000 0.000
vt 0.000 0.000
vt 0.000 0.000
vt 0.000 0.000
vt 0.000 0.000
vt 0.000 0.000
vt 0.000 0.000
vt 0.000 0.000
vt 0.000 0.000
vt 0.000 0.000
vt 0.000 0.000
vt 0.000 0.000
vt 0.000 0.000
vt 0.000 0.000
vt 0.000 0.000
vt 0.000 0.000
vt 0.000 0.000
vt 0.000 0.000
vt 0.000 0.000
vt 0.000 0.000
vt 0.000 0.000
vt 0.000 0.000
vt 0.000 0.000
vt 0.000 0.000
vt 0.000 0.000
vt 0.000 0.000
vt 0.000 0.000
vt 0.000 0.000
vt 0.000 0.000
vt 0.000 0.000
vt 0.000 0.000
vt 0.000 0.000
vt 0.000 0.000
vt 0.000 0.000
vt 0.000 0.000
vt 0.000 0.000
vt 0.000 0.000
vt 0.000 0.000
vt 0.000 0.000
vt 0.000 0.000
vt 0.000 0.000
vt 0.000 0.000
vt 0.000 0.000
vt 0.000 0.000
vt 0.000 0.000
vt 0.000 0.000
vt 0.000 0.000
vt 0.000 0.000
vt 0.000 0.000
vt 0.000 0.000
vt 0.000 0.000
vt 0.000 0.000
vt 0.000 0.000
vt 0.000 0.000
vt 0.000 0.000
vt 0.000 0.000
vt 0.000 0.000
vt 0.000 0.000
vt 0.000 0.000
vt 0.000 0.000
vt 0.000 0.000
vt 0.000 0.000
vt 0.000 0.000
vt 0.000 0.000
vt 0.000 0.000
vt 0.000 0.000
vt 0.000 0.000
vt 0.000 0.000
vt 0.000 0.000
vt 0.000 0.000
vt 0.000 0.000
vt 0.000 0.000
vt 0.000 0.000
vt 0.000 0.000
vt 0.000 0.000
vt 0.000 0.000
vt 0.000 0.000
vt 0.000 0.000
vt 0.000 0.000
vt 0.000 0.000
vt 0.000 0.000
vt 0.000 0.000
vt 0.000 0.000
vt 0.000 0.000
vt 0.000 0.000
vt 0.000 0.000
vt 0.000 0.000
vt 0.000 0.000
vt 0.000 0.000
vt 0.000 0.000
vt 0.000 0.000
vt 0.000 0.000
vt 0.000 0.000
vt 0.000 0.000
vt 0.000 0.000
vt 0.000 0.000
vt 0.000 0.000
vt 0.000 0.000
vt 0.000 0.000
vt 0.000 0.000
vt 0.000 0.000
vt 0.000 0.000
vt 0.000 0.000
vt 0.000 0.000
vt 0.000 0.000
vt 0.000 0.000
vt 0.000 0.000
vt 0.000 0.000
vt 0.000 0.000
vt 0.000 0.000
vt 0.000 0.000
vt 0.000 0.000
vt 0.000 0.000
vt 0.000 0.000
vt 0.000 0.000
vt 0.000 0.000
vt 0.000 0.000
vt 0.000 0.000
vt 0.000 0.000
vt 0.000 0.000
vt 0.000 0.000
vt 0.000 0.000
vt 0.000 0.000
vt 0.000 0.000
vt 0.000 0.000
vt 0.000 0.000
vt 0.000 0.000
vt 0.000 0.000
vt 0.000 0.000
vt 0.000 0.000
vt 0.000 0.000
vt 0.000 0.000
vt 0.000 0.000
vt 0.000 0.000
vt 0.000 0.000
vt 0.000 0.000
vt 0.000 0.000
vt 0.000 0.000
vt 0.000 0.000
vt 0.000 0.000
vt 0.000 0.000
vt 0.000 0.000
vt 0.000 0.000
vt 0.000 0.000
vt 0.000 0.000
vt 0.000 0.000
vt 0.000 0.000
vt 0.000 0.000
vt 0.000 0.000
vt 0.000 0.000
vt 0.000 0.000
vt 0.000 0.000
vt 0.000 0.000
vt 0.000 0.000
vt 0.000 0.000
vt 0.000 0.000
vt 0.000 0.000
vt 0.000 0.000
vt 0.000 0.000
vt 0.000 0.000
vt 0.000 0.000
vt 0.000 0.000
vt 0.000 0.000
vt 0.000 0.000
vt 0.000 0.000
vt 0.000 0.000
vt 0.000 0.000
vt 0.000 0.000
vt 0.000 0.000
vt 0.000 0.000
vt 0.000 0.000
vt 0.000 0.000
vt 0.000 0.000
vt 0.000 0.000
vt 0.000 0.000
vt 0.000 0.000
vt 0.000 0.000
vt 0.000 0.000
vt 0.000 0.000
vt 0.000 0.000
vt 0.000 0.000
vt 0.000 0.000
vt 0.000 0.000
vt 0.000 0.000
vt 0.000 0.000
vt 0.000 0.000
vt 0.000 0.000
vt 0.000 0.000
vt 0.000 0.000
vt 0.000 0.000
vt 0.000 0.000
vt 0.000 0.000
vt 0.000 0.000
vt 0.000 0.000
vt 0.000 0.000
vt 0.000 0.000
vt 0.000 0.000
vt 0.000 0.000
vt 0.000 0.000
vt 0.000 0.000
vt 0.000 0.000
vt 0.000 0.000
vt 0.000 0.000
vt 0.000 0.000
vt 0.000 0.000
vt 0.000 0.000
vt 0.000 0.000
vt 0.000 0.000
vt 0.000 0.000
vt 0.000 0.000
vt 0.000 0.000
vt 0.000 0.000
vt 0.000 0.000
vt 0.000 0.000
vt 0.000 0.000
vt 0.000 0.000
vt 0.000 0.000
vt 0.000 0.000
vt 0.000 0.000
vt 0.000 0.000
vt 0.000 0.000
vt 0.000 0.000
vt 0.000 0.000
vt 0.000 0.000
vt 0.000 0.000
vt 0.000 0.000
vt 0.000 0.000
vt 0.000 0.000
vt 0.000 0.000
vt 0.000 0.000
vt 0.000 0.000
vt 0.000 0.000
vt 0.000 0.000
vt 0.000 0.000
vt 0.000 0.000
vt 0.000 0.000
vt 0.000 0.000
vt 0.000 0.000
vt 0.000 0.000
vt 0.000 0.000
vt 0.000 0.000
vt 0.000 0.000
vt 0.000 0.000
vt 0.000 0.000
vt 0.000 0.000
vt 0.000 0.000
vt 0.000 0.000
vt 0.000 0.000
vt 0.000 0.000
vt 0.000 0.000
vt 0.000 0.000
vt 0.000 0.000
vt 0.000 0.000
vt 0.000 0.000
vt 0.000 0.000
vt 0.000 0.000
vt 0.000 0.000
vt 0.000 0.000
vt 0.000 0.000
vt 0.000 0.000
vt 0.000 0.000
vt 0.000 0.000
vt 0.000 0.000
vt 0.000 0.000
vt 0.000 0.000
vt 0.000 0.000
vt 0.000 0.000
vt 0.000 0.000
vt 0.000 0.000
vt 0.000 0.000
vt 0.000 0.000
vt 0.000 0.000
vt 0.000 0.000
vt 0.000 0.000
vt 0.000 0.000
vt 0.000 0.000
vt 0.000 0.000
vt 0.000 0.000
vt 0.000 0.000
vt 0.000 0.000
vt 0.000 0.000
vt 0.000 0.000
vt 0.000 0.000
vt 0.000 0.000
vt 0.000 0.000
vt 0.000 0.000
vt 0.000 0.000
vt 0.000 0.000
vt 0.000 0.000
vt 0.000 0.000
vt 0.000 0.000
vt 0.000 0.000
vt 0.000 0.000
vt 0.000 0.000
vt 0.000 0.000
vt 0.000 0.000
vt 0.000 0.000
vt 0.000 0.000
vt 0.000 0.000
vt 0.000 0.000
vt 0.000 0.000
vt 0.000 0.000
vt 0.000 0.000
vt 0.000 0.000
vt 0.000 0.000
vt 0.000 0.000
vt 0.000 0.000
vt 0.000 0.000
vt 0.000 0.000
vt 0.000 0.000
vt 0.000 0.000
vt 0.000 0.000
vt 0.000 0.000
vt 0.000 0.000
vt 0.000 0.000
vt 0.000 0.000
vt 0.000 0.000
vt 0.000 0.000
vt 0.000 0.000
vt 0.000 0.000
vt 0.000 0.000
vt 0.000 0.000
vt 0.000 0.000
vt 0.000 0.000
vt 0.000 0.000
vt 0.000 0.000
vt 0.000 0.000
vt 0.000 0.000
vt 0.000 0.000
vt 0.000 0.000
vt 0.000 0.000
vt 0.000 0.000
vt 0.000 0.000
vt 0.000 0.000
vt 0.000 0.000
vt 0.000 0.000
vt 0.000 0.000
vt 0.000 0.000
vt 0.000 0.000
vt 0.000 0.000
vt 0.000 0.000
vt 0.000 0.000
vt 0.000 0.000
vt 0.000 0.000
vt 0.000 0.000
vt 0.000 0.000
vt 0.000 0.000
vt 0.000 0.000
vt 0.000 0.000
vt 0.000 0.000
vt 0.000 0.000
vt 0.000 0.000
vt 0.000 0.000
vt 0.000 0.000
vt 0.000 0.000
vt 0.000 0.000
vt 0.000 0.000
vt 0.000 0.000
vt 0.000 0.000
vt 0.000 0.000
vt 0.000 0.000
vt 0.000 0.000
vt 0.000 0.000
vt 0.000 0.000
vt 0.000 0.000
vt 0.000 0.000
vt 0.000 0.000
vt 0.000 0.000
vt 0.000 0.000
vt 0.000 0.000
vt 0.000 0.000
vt 0.000 0.000
vt 0.000 0.000
vt 0.000 0.000
vt 0.000 0.000
vt 0.000 0.000
vt 0.000 0.000
vt 0.000 0.000
vt 0.000 0.000
vt 0.000 0.000
vt 0.000 0.000
vt 0.000 0.000
vt 0.000 0.000
vt 0.000 0.000
vt 0.000 0.000
vt 0.000 0.000
vt 0.000 0.000
vt 0.000 0.000
vt 0.000 0.000
vt 0.000 0.000
vt 0.000 0.000
vt 0.000 0.000
vt 0.000 0.000
vt 0.000 0.000
vt 0.000 0.000
vt 0.000 0.000
vt 0.000 0.000
vt 0.000 0.000
vt 0.000 0.000
vt 0.000 0.000
vt 0.000 0.000
vt 0.000 0.000
vt 0.000 0.000
vt 0.000 0.000
vt 0.000 0.000
vt 0.000 0.000
vt 0.000 0.000
vt 0.000 0.000
vt 0.000 0.000
vt 0.000 0.000
vt 0.000 0.000
vt 0.000 0.000
vt 0.000 0.000
vt 0.000 0.000
vt 0.000 0.000
vt 0.000 0.000
vt 0.000 0.000
vt 0.000 0.000
vt 0.000 0.000
vt 0.000 0.000
vt 0.000 0.000
vt 0.000 0.000
vt 0.000 0.000
vt 0.000 0.000
vt 0.000 0.000
vt 0.000 0.000
vt 0.000 0.000
vt 0.000 0.000
vt 0.000 0.000
vt 0.000 0.000
vt 0.000 0.000
vt 0.000 0.000
vt 0.000 0.000
vt 0.000 0.000
vt 0.000 0.000
vt 0.000 0.000
vt 0.000 0.000
vt 0.000 0.000
vt 0.000 0.000
vt 0.000 0.000
vt 0.000 0.000
vt 0.000 0.000
vt 0.000 0.000
vt 0.000 0.000
vt 0.000 0.000
vt 0.000 0.000
vt 0.000 0.000

# Facets
usemtl None
f 1/1/1 2/2/1 3/3/1
f 4/4/2 3/5/2 2/6/2
f 4/7/3 2/8/3 5/9/3
f 6/10/4 7/11/4 3/12/4
f 8/13/5 4/14/5 9/15/5
f 7/16/6 6/17/6 8/18/6
f 3/19/7 4/20/7 8/21/7
f 8/22/8 6/23/8 3/24/8
f 7/25/9 10/26/9 3/27/9
f 11/28/10 7/29/10 12/30/10
f 11/31/11 13/32/11 7/33/11
f 12/34/12 9/35/12 14/36/12
f 2/37/13 15/38/13 5/39/13
f 15/40/14 16/41/14 5/42/14
f 12/43/15 7/44/15 8/45/15
f 17/46/16 15/47/16 10/48/16
f 16/49/17 15/50/17 17/51/17
f 9/52/18 4/53/18 5/54/18
f 5/55/19 11/56/19 14/57/19
f 14/58/20 9/59/20 5/60/20
f 18/61/21 5/62/21 16/63/21
f 17/64/22 10/65/22 7/66/22
f 7/67/23 13/68/23 17/69/23
f 19/70/24 10/71/24 15/72/24
f 19/73/25 2/74/25 1/75/25
f 19/76/26 15/77/26 2/78/26
f 19/79/27 1/80/27 3/81/27
f 19/82/28 3/83/28 10/84/28
f 12/85/29 8/86/29 9/87/29
f 14/88/30 11/89/30 12/90/30
f 17/91/31 13/92/31 18/93/31
f 18/94/32 13/95/32 11/96/32
f 18/97/33 11/98/33 5/99/33
f 17/100/34 18/101/34 16/102/34
f 20/103/35 21/104/35 22/105/35
f 23/106/36 24/107/36 22/108/36
f 22/109/37 24/110/37 20/111/37
f 20/112/38 24/113/38 25/114/38
f 26/115/39 24/116/39 23/117/39
f 24/118/40 27/119/40 25/120/40
f 23/121/41 22/122/41 28/123/41
f 29/124/42 23/125/42 28/126/42
f 30/127/43 26/128/43 23/129/43
f 26/130/44 31/131/44 24/132/44
f 27/133/45 31/134/45 26/135/45
f 24/136/46 31/137/46 27/138/46
f 32/139/47 27/140/47 26/141/47
f 27/142/48 32/143/48 25/144/48
f 33/145/49 25/146/49 32/147/49
f 30/148/50 34/149/50 26/150/50
f 33/151/51 35/152/51 25/153/51
f 35/154/52 36/155/52 20/156/52
f 35/157/53 20/158/53 25/159/53
f 35/160/54 33/161/54 36/162/54
f 20/163/55 33/164/55 21/165/55
f 36/166/56 33/167/56 20/168/56
f 22/169/57 37/170/57 38/171/57
f 37/172/58 22/173/58 21/174/58
f 37/175/59 21/176/59 33/177/59
f 34/178/60 32/179/60 26/180/60
f 33/181/61 32/182/61 37/183/61
f 29/184/62 34/185/62 23/186/62
f 34/187/63 30/188/63 23/189/63
f 32/190/64 34/191/64 37/192/64
f 37/193/65 34/194/65 38/195/65
f 38/196/66 34/197/66 29/198/66
f 28/199/67 38/200/67 29/201/67
f 28/202/68 22/203/68 38/204/68
f 39/205/69 40/206/69 41/207/69
f 41/208/70 42/209/70 39/210/70
f 42/211/71 43/212/71 39/213/71
f 44/214/72 42/215/72 41/216/72
f 42/217/73 44/218/73 45/219/73
f 46/220/74 47/221/74 48/222/74
f 48/223/75 49/224/75 50/225/75
f 51/226/76 40/227/76 52/228/76
f 49/229/77 53/230/77 54/231/77
f 55/232/78 53/233/78 49/234/78
f 53/235/79 56/236/79 54/237/79
f 57/238/80 44/239/80 41/240/80
f 48/241/81 58/242/81 49/243/81
f 49/244/82 58/245/82 55/246/82
f 55/247/83 58/248/83 48/249/83
f 59/250/84 60/251/84 45/252/84
f 56/253/85 53/254/85 59/255/85
f 51/256/86 61/257/86 40/258/86
f 40/259/87 61/260/87 41/261/87
f 51/262/88 41/263/88 61/264/88
f 50/265/89 49/266/89 52/267/89
f 54/268/90 52/269/90 49/270/90
f 51/271/91 52/272/91 54/273/91
f 62/274/92 63/275/92 64/276/92
f 39/277/93 62/278/93 40/279/93
f 40/280/94 62/281/94 64/282/94
f 60/283/95 59/284/95 47/285/95
f 59/286/96 53/287/96 55/288/96
f 47/289/97 59/290/97 48/291/97
f 59/292/98 55/293/98 48/294/98
f 43/295/99 42/296/99 45/297/99
f 60/298/100 43/299/100 45/300/100
f 60/301/101 46/302/101 43/303/101
f 60/304/102 47/305/102 46/306/102
f 54/307/103 57/308/103 51/309/103
f 51/310/104 57/311/104 41/312/104
f 43/313/105 46/314/105 65/315/105
f 43/316/106 65/317/106 39/318/106
f 65/319/107 62/320/107 39/321/107
f 62/322/108 66/323/108 63/324/108
f 50/325/109 52/326/109 64/327/109
f 64/328/110 52/329/110 40/330/110
f 50/331/111 63/332/111 48/333/111
f 64/334/112 63/335/112 50/336/112
f 65/337/113 66/338/113 62/339/113
f 65/340/114 46/341/114 66/342/114
f 48/343/115 66/344/115 46/345/115
f 63/346/116 66/347/116 48/348/116
f 44/349/117 57/350/117 45/351/117
f 59/352/118 57/353/118 56/354/118
f 57/355/119 54/356/119 56/357/119
f 45/358/120 57/359/120 59/360/120
f 39/361/121 67/362/121 68/363/121
f 35/364/122 36/365/122 69/366/122
f 26/367/123 68/368/123 36/369/123
f 26/370/124 19/371/124 68/372/124
f 27/373/125 31/374/125 26/375/125
f 26/376/126 35/377/126 27/378/126
f 36/379/127 35/380/127 26/381/127
f 6/382/128 19/383/128 3/384/128
f 68/385/129 19/386/129 6/387/129
f 6/388/130 39/389/130 68/390/130
f 41/391/131 70/392/131 69/393/131
f 40/394/132 61/395/132 36/396/132
f 36/397/133 61/398/133 69/399/133
f 61/400/134 41/401/134 69/402/134
f 61/403/135 40/404/135 44/405/135
f 61/406/136 44/407/136 41/408/136
f 3/409/137 39/410/137 6/411/137
f 25/412/138 27/413/138 35/414/138
f 71/415/139 25/416/139 70/417/139
f 70/418/140 25/419/140 69/420/140
f 3/421/141 72/422/141 73/423/141
f 74/424/142 71/425/142 70/426/142
f 74/427/143 75/428/143 71/429/143
f 76/430/144 3/431/144 19/432/144
f 71/433/145 76/434/145 27/435/145
f 27/436/146 25/437/146 71/438/146
f 35/439/147 69/440/147 25/441/147
f 42/442/148 41/443/148 44/444/148
f 44/445/149 77/446/149 42/447/149
f 42/448/150 67/449/150 39/450/150
f 73/451/151 78/452/151 70/453/151
f 75/454/152 79/455/152 72/456/152
f 72/457/153 71/458/153 75/459/153
f 72/460/154 76/461/154 71/462/154
f 3/463/155 76/464/155 72/465/155
f 41/466/156 42/467/156 80/468/156
f 42/469/157 45/470/157 67/471/157
f 3/472/158 42/473/158 39/474/158
f 73/475/159 42/476/159 3/477/159
f 74/478/160 78/479/160 75/480/160
f 76/481/161 1/482/161 27/483/161
f 1/484/162 76/485/162 19/486/162
f 26/487/163 1/488/163 19/489/163
f 78/490/164 72/491/164 79/492/164
f 72/493/165 78/494/165 73/495/165
f 81/496/166 42/497/166 73/498/166
f 81/499/167 80/500/167 42/501/167
f 73/502/168 70/503/168 80/504/168
f 80/505/169 81/506/169 73/507/169
f 80/508/170 70/509/170 41/510/170
f 77/511/171 45/512/171 42/513/171
f 40/514/172 36/515/172 68/516/172
f 40/517/173 68/518/173 67/519/173
f 78/520/174 74/521/174 70/522/174
f 45/523/175 40/524/175 67/525/175
f 40/526/176 45/527/176 44/528/176
f 1/529/177 31/530/177 27/531/177
f 1/532/178 26/533/178 31/534/178
f 45/535/179 77/536/179 44/537/179
f 78/538/180 79/539/180 75/540/180

# Thank you for using Spin 3D

